<?xml version="1.0" encoding="utf-8"?>
<?xml-stylesheet type="text/xsl" href="rss1.xsl"?>
<rss version="2.0" xmlns:atom="http://www.w3.org/2005/Atom" xmlns:content="http://purl.org/rss/1.0/modules/content/" xmlns:dc="http://purl.org/dc/elements/1.1/" xmlns:media="http://search.yahoo.com/mrss/">
<channel>
 <title>Getty</title>
 <link>http://www.gettyimg.com/</link>
 <atom:link href="http://www.gettyimg.com/" rel="self" type="application/rss+xml" />

 
                <item>
                <title><![CDATA[【Albums (lossless)】DSF - Billy Joel - The Nylon Curtain (1982) [SACD, DSD64, 1Bit-2.8MHz 2.0, (ISO)]]]></title>
                <link><![CDATA[https://sharemania.us/threads/billy-joel-the-nylon-curtain-1982-sacd-dsd64-1bit-2-8mhz-2-0-iso.234836/]]></link>
                <description><![CDATA[<article>
<blockquote class="messageText SelectQuoteContainer ugc baseHtml">
<img src="https://static.qobuz.com/images/covers/29/88/0074646938829_600.jpg" class="bbCodeImage LbImage" alt="[​IMG]" data-url="https://static.qobuz.com/images/covers/29/88/0074646938829_600.jpg" style=""> <br>
<b>Label: </b>Mobile Fidelity Sound Lab - UDSACD 2093<br>
<b>Series: </b>Original Master Recording, Ultradisc UHR<br>
<b>Format:</b> SACD, Hybrid, Stereo, Album, Limited Edition, Numbered, Remastered<br>
Country: US<br>
<b>Released: </b>2012<br>
<b>Genre</b>: Rock, Pop<br>
<b>Style</b>: Pop Rock<br>
<br>
<b>Tracklist</b><br>
1. Allentown<br>
2. Laura<br>
3. Pressure<br>
4. Goodnight Saigon<br>
5. She's Right On Time<br>
6. A Room Of Our Own<br>
7. Surprises<br>
8. Scandanavian Skies<br>
9. Where's The Orchestra?<br>
<br>
<b><span style="color: #ff0000">DOWNLOAD</span></b><br>
<div class="bbCodeBlock bbCodeVfcHH HiddenContent">
<div class="attribution type">Hidden Content:</div>
<blockquote>You must reply before you can see the hidden data contained here.</blockquote>
</div>
<div class="messageTextEndMarker">&nbsp;</div>
</blockquote>
</article>]]></description>
                <author><![CDATA[olobersykes99]]></author>
                </item>

                
                <item>
                <title><![CDATA[【MASTER &amp; MASTER RIP】MASTER - Enrique Iglesias, MykeTowers – TE FUISTE (MasterRip AVC 1080p PCM 2.0) – 2022]]></title>
                <link><![CDATA[https://sharemania.us/threads/enrique-iglesias-myketowers-%E2%80%93-te-fuiste-masterrip-avc-1080p-pcm-2-0-%E2%80%93-2022.234835/]]></link>
                <description><![CDATA[<article>
<blockquote class="messageText SelectQuoteContainer ugc baseHtml">
<div style="text-align: center"><span style="font-family: 'Times New Roman'"><img src="https://i.imgur.com/rLDVZDr.jpg" class="bbCodeImage LbImage" alt="[​IMG]" data-url="https://i.imgur.com/rLDVZDr.jpg" style=""><span style="font-size: 15px"> <br>
</span></span>​</div>
<div class="ToggleTriggerAnchor bbCodeSpoilerContainer">
<button type="button" class="button bbCodeSpoilerButton ToggleTrigger Tooltip JsOnly" data-target="> .SpoilerTarget"><span>Spoiler: <span class="SpoilerTitle">MediaInfo</span></span></button>
<div class="SpoilerTarget bbCodeSpoilerText"><span style="font-family: 'Times New Roman'"><span style="font-size: 15px">General<br>
Unique ID : 167902551618168147583474482543025682057 (0x7E50DAEDBC1CAD26267839F267C77689)<br>
Complete name : N:\Asia\TELEDYSKI\Enrique Iglesias, MykeTowers – TE FUISTE (MasterRip AVC 1080p PCM 2.0) – 2022.mkv<br>
Format : Matroska<br>
Format version : Version 4<br>
File size : 1.11 GiB<br>
Duration : 2 min 56 s<br>
Overall bit rate : 53.9 Mb/s<br>
Encoded date : UTC 2023-12-28 21:11:51<br>
Writing application : mkvmerge v78.0 ('Running') 64-bit<br>
Writing library : libebml v1.4.4 + libmatroska v1.7.1<br>
<br>
Video<br>
ID : 1<br>
Format : AVC<br>
Format/Info : Advanced Video Codec<br>
Format profile : High@L5.1<br>
Format settings : CABAC / 1 Ref Frames<br>
Format settings, CABAC : Yes<br>
Format settings, Reference frames : 1 frame<br>
Format settings, GOP : M=1, N=30<br>
Codec ID : V_MPEG4/ISO/AVC<br>
Duration : 2 min 56 s<br>
Bit rate : 52.4 Mb/s<br>
Width : 1 920 pixels<br>
Height : 1 080 pixels<br>
Display aspect ratio : 16:9<br>
Frame rate mode : Constant<br>
Frame rate : 24.000 FPS<br>
Color space : YUV<br>
Chroma subsampling : 4:2:0<br>
Bit depth : 8 bits<br>
Scan type : Progressive<br>
Bits/(Pixel*Frame) : 1.052<br>
Stream size : 1.07 GiB (97%)<br>
Language : English<br>
Default : Yes<br>
Forced : No<br>
<br>
Audio<br>
ID : 2<br>
Format : PCM<br>
Format settings : Little / Signed<br>
Codec ID : A_PCM/INT/LIT<br>
Duration : 2 min 56 s<br>
Bit rate mode : Constant<br>
Bit rate : 1 536 kb/s<br>
Channel(s) : 2 channels<br>
Sampling rate : 48.0 kHz<br>
Frame rate : 25.005 FPS (1920 SPF)<br>
Bit depth : 16 bits<br>
Stream size : 32.3 MiB (3%)<br>
Default : Yes<br>
Forced : No<br>
<br>
<br>
</span></span></div>
</div><br>
<div style="text-align: center"><span style="font-family: 'Times New Roman'"><span style="font-size: 15px"><br>
<div class="bbCodeBlock bbCodeVfcHH HiddenContent">
<div class="attribution type">Hidden Content:</div>
<blockquote>You must either reply or click 'Like' to see the hidden information contained here.</blockquote>
</div></span></span>​</div>
<div class="messageTextEndMarker">&nbsp;</div>
</blockquote>
</article>]]></description>
                <author><![CDATA[mariellisaa]]></author>
                </item>

                </channel></rss>